<mxfile host="65bd71144e">
    <diagram name="Page-1" id="c4acf3e9-155e-7222-9cf6-157b1a14988f">
        <mxGraphModel dx="1583" dy="771" grid="1" gridSize="10" guides="1" tooltips="1" connect="1" arrows="1" fold="1" page="1" pageScale="1" pageWidth="1169" pageHeight="827" background="#ffffff" math="0" shadow="0">
            <root>
                <mxCell id="0"/>
                <mxCell id="1" parent="0"/>
                <mxCell id="61" value="UdaConnect" style="shape=umlFrame;whiteSpace=wrap;html=1;labelBackgroundColor=none;fontSize=12;fontColor=#000000;strokeColor=#000000;fillColor=none;swimlaneFillColor=none;width=80;height=30;" parent="1" vertex="1">
                    <mxGeometry x="60" y="10" width="880" height="490" as="geometry"/>
                </mxCell>
                <mxCell id="16" value="FrontendClient" style="html=1;fillColor=#647687;fontColor=#FFFFFF;strokeColor=#314354;" parent="1" vertex="1">
                    <mxGeometry x="135" y="160" width="110" height="50" as="geometry"/>
                </mxCell>
                <mxCell id="31" style="edgeStyle=none;html=1;exitX=0;exitY=0.5;exitDx=0;exitDy=0;entryX=1;entryY=0.5;entryDx=0;entryDy=0;fontColor=#FFFFFF;" parent="1" source="17" target="20" edge="1">
                    <mxGeometry relative="1" as="geometry"/>
                </mxCell>
                <mxCell id="37" style="edgeStyle=none;html=1;exitX=0.5;exitY=1;exitDx=0;exitDy=0;entryX=0.5;entryY=0;entryDx=0;entryDy=0;fontColor=#FFFFFF;strokeColor=#000000;startArrow=classic;startFill=1;endArrow=none;endFill=0;" parent="1" source="17" target="19" edge="1">
                    <mxGeometry relative="1" as="geometry"/>
                </mxCell>
                <mxCell id="48" value="&lt;font color=&quot;#000000&quot; style=&quot;background-color: rgb(255 , 255 , 255)&quot;&gt;&amp;lt;&amp;lt;gRPC&amp;gt;&amp;gt;&lt;/font&gt;" style="edgeLabel;html=1;align=center;verticalAlign=middle;resizable=0;points=[];fontSize=12;fontColor=#FFFFFF;fontStyle=0" parent="37" vertex="1" connectable="0">
                    <mxGeometry x="-0.0286" y="3" relative="1" as="geometry">
                        <mxPoint as="offset"/>
                    </mxGeometry>
                </mxCell>
                <mxCell id="55" value="" style="edgeStyle=none;html=1;fontSize=12;fontColor=#FFFFFF;startArrow=classic;startFill=1;endArrow=classic;endFill=1;strokeColor=#000000;entryX=1;entryY=0.5;entryDx=0;entryDy=0;" parent="1" source="17" target="20" edge="1">
                    <mxGeometry relative="1" as="geometry">
                        <mxPoint x="520" y="234.73684210526312" as="targetPoint"/>
                    </mxGeometry>
                </mxCell>
                <mxCell id="17" value="PersonService" style="html=1;fillColor=#1ba1e2;fontColor=#FFFFFF;strokeColor=#006EAF;" parent="1" vertex="1">
                    <mxGeometry x="600" y="160" width="110" height="50" as="geometry"/>
                </mxCell>
                <mxCell id="53" style="edgeStyle=none;html=1;exitX=1;exitY=0.5;exitDx=0;exitDy=0;entryX=0;entryY=0;entryDx=0;entryDy=52.5;entryPerimeter=0;fontSize=12;fontColor=#FFFFFF;startArrow=none;startFill=0;endArrow=classic;endFill=1;strokeColor=#000000;" parent="1" source="18" target="49" edge="1">
                    <mxGeometry relative="1" as="geometry"/>
                </mxCell>
                <mxCell id="18" value="LocationService" style="html=1;fillColor=#60a917;fontColor=#FFFFFF;strokeColor=#2D7600;" parent="1" vertex="1">
                    <mxGeometry x="600" y="400" width="110" height="50" as="geometry"/>
                </mxCell>
                <mxCell id="65" style="edgeStyle=none;html=1;exitX=0;exitY=0.5;exitDx=0;exitDy=0;strokeColor=#000000;" parent="1" source="19" target="62" edge="1">
                    <mxGeometry relative="1" as="geometry"/>
                </mxCell>
                <mxCell id="19" value="ConnectionService" style="html=1;fillColor=#d80073;fontColor=#FFFFFF;strokeColor=#A50040;" parent="1" vertex="1">
                    <mxGeometry x="600" y="280" width="110" height="50" as="geometry"/>
                </mxCell>
                <mxCell id="32" style="edgeStyle=none;html=1;exitX=0;exitY=0.5;exitDx=0;exitDy=0;entryX=1;entryY=0.5;entryDx=0;entryDy=0;fontColor=#FFFFFF;strokeColor=#000000;" parent="1" source="20" target="16" edge="1">
                    <mxGeometry relative="1" as="geometry">
                        <mxPoint x="245" y="190" as="targetPoint"/>
                    </mxGeometry>
                </mxCell>
                <mxCell id="20" value="&amp;lt;&amp;lt;REST&amp;gt;&amp;gt;&lt;br&gt;PersonAPI" style="html=1;fillColor=#1ba1e2;fontColor=#FFFFFF;strokeColor=#006EAF;" parent="1" vertex="1">
                    <mxGeometry x="390" y="160" width="110" height="50" as="geometry"/>
                </mxCell>
                <mxCell id="56" style="edgeStyle=none;html=1;exitX=0.9;exitY=0.5;exitDx=0;exitDy=0;exitPerimeter=0;entryX=0;entryY=0.75;entryDx=0;entryDy=0;fontSize=12;fontColor=#000000;startArrow=none;startFill=0;endArrow=classic;endFill=1;strokeColor=#000000;" parent="1" source="41" target="20" edge="1">
                    <mxGeometry relative="1" as="geometry"/>
                </mxCell>
                <mxCell id="41" value="" style="shape=actor;whiteSpace=wrap;html=1;fontColor=#FFFFFF;" parent="1" vertex="1">
                    <mxGeometry x="170" y="290" width="40" height="60" as="geometry"/>
                </mxCell>
                <mxCell id="46" style="edgeStyle=none;html=1;exitX=0;exitY=0.5;exitDx=0;exitDy=0;entryX=0;entryY=0.5;entryDx=0;entryDy=0;fontColor=#FFFFFF;strokeColor=#000000;" parent="1" source="44" target="18" edge="1">
                    <mxGeometry relative="1" as="geometry"/>
                </mxCell>
                <mxCell id="44" value="Kafka" style="html=1;fillColor=#60a917;fontColor=#ffffff;strokeColor=#2D7600;" parent="1" vertex="1">
                    <mxGeometry x="400" y="400" width="110" height="50" as="geometry"/>
                </mxCell>
                <mxCell id="50" style="edgeStyle=none;html=1;exitX=0;exitY=0;exitDx=0;exitDy=27.5;exitPerimeter=0;entryX=1;entryY=0.5;entryDx=0;entryDy=0;fontSize=12;fontColor=#FFFFFF;strokeColor=#000000;startArrow=classic;startFill=1;endArrow=classic;endFill=1;" parent="1" source="49" target="17" edge="1">
                    <mxGeometry relative="1" as="geometry"/>
                </mxCell>
                <mxCell id="49" value="" style="shape=cylinder3;whiteSpace=wrap;html=1;boundedLbl=1;backgroundOutline=1;size=15;fontSize=12;fontColor=#FFFFFF;strokeColor=#000000;fillColor=none;" parent="1" vertex="1">
                    <mxGeometry x="840" y="265" width="60" height="80" as="geometry"/>
                </mxCell>
                <mxCell id="52" style="edgeStyle=none;html=1;exitX=0;exitY=0.5;exitDx=0;exitDy=0;exitPerimeter=0;entryX=1;entryY=0.5;entryDx=0;entryDy=0;fontSize=12;fontColor=#FFFFFF;strokeColor=#000000;startArrow=none;startFill=0;endArrow=classic;endFill=1;" parent="1" source="49" target="19" edge="1">
                    <mxGeometry relative="1" as="geometry">
                        <mxPoint x="850" y="315" as="sourcePoint"/>
                        <mxPoint x="720" y="195" as="targetPoint"/>
                    </mxGeometry>
                </mxCell>
                <mxCell id="58" value="&lt;ul&gt;&lt;li&gt;Location data is sent to the LocationService using Kafka by the KafkaProducer&lt;/li&gt;&lt;li&gt;New person data is using the REST-API of the PersonService to be added to the database&lt;/li&gt;&lt;li&gt;Frontend client is using REST-APIs to query the person data including its connections&lt;/li&gt;&lt;li&gt;ConnectionService uses gRPC to retrieve the persons for the connections&lt;/li&gt;&lt;/ul&gt;" style="text;strokeColor=none;fillColor=none;html=1;whiteSpace=wrap;verticalAlign=middle;overflow=hidden;labelBackgroundColor=none;fontSize=12;fontColor=#000000;" parent="1" vertex="1">
                    <mxGeometry x="110" y="20" width="640" height="110" as="geometry"/>
                </mxCell>
                <mxCell id="64" style="edgeStyle=none;html=1;exitX=0;exitY=0.5;exitDx=0;exitDy=0;entryX=1;entryY=0.75;entryDx=0;entryDy=0;strokeColor=#000000;" parent="1" source="62" target="16" edge="1">
                    <mxGeometry relative="1" as="geometry"/>
                </mxCell>
                <mxCell id="62" value="&amp;lt;&amp;lt;REST&amp;gt;&amp;gt;&lt;br&gt;ConnecrionAPI" style="html=1;fillColor=#d80073;fontColor=#ffffff;strokeColor=#A50040;" parent="1" vertex="1">
                    <mxGeometry x="390" y="280" width="110" height="50" as="geometry"/>
                </mxCell>
                <mxCell id="67" style="edgeStyle=none;html=1;exitX=0;exitY=0.5;exitDx=0;exitDy=0;startArrow=classic;startFill=1;endArrow=none;endFill=0;strokeColor=#000000;entryX=1;entryY=0.5;entryDx=0;entryDy=0;" parent="1" source="44" target="66" edge="1">
                    <mxGeometry relative="1" as="geometry"/>
                </mxCell>
                <mxCell id="66" value="KafkaProducer" style="html=1;fillColor=#60a917;fontColor=#ffffff;strokeColor=#2D7600;" parent="1" vertex="1">
                    <mxGeometry x="135" y="400" width="110" height="50" as="geometry"/>
                </mxCell>
            </root>
        </mxGraphModel>
    </diagram>
</mxfile>